<svg width="440.15501708984374px" height="214.56499633789062px" xmlns="http://www.w3.org/2000/svg"
     viewBox="29.92249145507813 -32.28249816894531 440.15501708984374 214.56499633789062"
     style="background: rgba(0, 0, 0, 0);" preserveAspectRatio="xMidYMid">
    <defs>
        <filter id="editing-vr">
            <feFlood flood-color="#f00" flood-opacity="0.7" result="c1"></feFlood>
            <feFlood flood-color="#00f" flood-opacity="0.7" result="c3"></feFlood>
            <feComposite operator="in" in="c1" in2="SourceAlpha" result="text-c1"></feComposite>
            <feComposite operator="in" in="c3" in2="SourceAlpha" result="text-c3"></feComposite>
            <feOffset in="text-c1" dx="5" dy="-1" result="text1"></feOffset>
            <feOffset in="text-c3" dx="-5" dy="1" result="text3"></feOffset>
            <feBlend in="SourceGraphic" in2="text1" mode="multiply" result="text4"></feBlend>
            <feBlend in="text4" in2="text3" mode="multiply"></feBlend>
        </filter>
    </defs>
    <g filter="url(#editing-vr)">
        <g transform="translate(94.0900011062622, 106.25500106811523)">
            <path d="M36.75-2.44L36.75-2.44L36.75-2.44Q36.75 0 25.44 0L25.44 0L18.81 0L16.19-0.13L12.25-0.19L12.25-0.19Q5.63-0.19 5.63-2.56L5.63-2.56L5.63-2.56Q5.63-4.25 8.59-6.16L8.59-6.16L8.59-6.16Q11.56-8.06 12.59-11.09L12.59-11.09L12.59-11.09Q13.63-14.13 13.63-29L13.63-29L13.63-29Q13.63-43.88 12.66-47.06L12.66-47.06L12.66-47.06Q11.69-50.25 9.63-51.63L9.63-51.63L9.63-51.63Q5.94-54.06 5.94-55.19L5.94-55.19L5.94-55.19Q5.94-56.31 7.25-57.19L7.25-57.19L7.25-57.19Q11.13-59.81 20.38-59.81L20.38-59.81L21.56-59.81L21.56-59.81Q25.13-59.81 26.63-56.22L26.63-56.22L26.63-56.22Q28.13-52.63 29.06-52.63L29.06-52.63L29.06-52.63Q30-52.63 32.28-54.38L32.28-54.38L32.28-54.38Q34.56-56.13 37.78-57.88L37.78-57.88L37.78-57.88Q41-59.63 44.94-59.63L44.94-59.63L44.94-59.63Q48.88-59.63 50.97-57.59L50.97-57.59L50.97-57.59Q53.06-55.56 53.06-52.38L53.06-52.38L53.06-52.38Q53-49.13 51.38-47.50L51.38-47.50L51.38-47.50Q49.75-45.88 47.88-45.88L47.88-45.88L47.88-45.88Q46-45.88 42.94-47.41L42.94-47.41L42.94-47.41Q39.88-48.94 37.81-48.94L37.81-48.94L37.81-48.94Q35.75-48.94 33.31-47.22L33.31-47.22L33.31-47.22Q30.88-45.50 29.16-41.09L29.16-41.09L29.16-41.09Q27.44-36.69 27.44-26.03L27.44-26.03L27.44-26.03Q27.44-15.38 28.94-12.28L28.94-12.28L28.94-12.28Q30.44-9.19 33.59-6.63L33.59-6.63L33.59-6.63Q36.75-4.06 36.75-2.44ZM93.63-28.94L93.63-28.94L92.56-28.94L92.56-28.94Q84.38-28.94 78.91-25.28L78.91-25.28L78.91-25.28Q73.44-21.63 73.44-16.19L73.44-16.19L73.44-14.94L73.44-14.94Q73.44-11.75 75.41-9.22L75.41-9.22L75.41-9.22Q77.38-6.69 80.50-6.69L80.50-6.69L81.25-6.56L83.13-6.56L83.13-6.56Q89.63-6.56 93.75-11.88L93.75-11.88L93.75-11.88Q95.56-14.19 95.56-21.38L95.56-21.38L95.56-21.38Q95.56-21.94 95.56-22.50L95.56-22.50L95.63-24L95.63-25.50L95.63-25.50Q95.63-28.94 93.63-28.94ZM63.25-49.13L63.25-49.13L63.25-49.13Q63.25-53.75 70.59-57.41L70.59-57.41L70.59-57.41Q77.94-61.06 85.81-61.06L85.81-61.06L85.81-61.06Q86.06-61.06 86.31-61.06L86.31-61.06L86.31-61.06Q93.81-61.06 98.31-59.25L98.31-59.25L98.31-59.25Q107.44-55.63 108.75-43.88L108.75-43.88L108.75-43.88Q108.88-42.69 108.88-28.16L108.88-28.16L108.88-28.16Q108.88-13.63 109.66-11.13L109.66-11.13L109.66-11.13Q110.44-8.63 113.91-7.44L113.91-7.44L113.91-7.44Q117.38-6.25 117.38-5.19L117.38-5.19L117.38-5.19Q117.38-2.94 115.13-1.75L115.13-1.75L115.13-1.75Q110.63 0.63 106.28 0.63L106.28 0.63L106.28 0.63Q101.94 0.63 99.81-1.38L99.81-1.38L99.81-1.38Q96-4.94 95.75-4.94L95.75-4.94L95.75-4.94Q95.50-4.94 88.69-1.78L88.69-1.78L88.69-1.78Q81.88 1.38 76.75 1.38L76.75 1.38L76.75 1.38Q69.06 1.38 64.69-2.88L64.69-2.88L64.69-2.88Q60.31-7.13 60.31-13.19L60.31-13.19L60.31-14.75L60.31-14.75Q60.31-21.25 65.94-26.19L65.94-26.19L65.94-26.19Q71.56-31.13 86.19-33.88L86.19-33.88L86.19-33.88Q91.50-34.88 92.88-35.75L92.88-35.75L92.88-35.75Q95.63-37.50 95.63-42.88L95.63-42.88L95.63-42.88Q95.63-48.25 92.75-51.13L92.75-51.13L92.75-51.13Q89.88-54 85.06-54L85.06-54L85.06-54Q80.25-54 75.78-48.41L75.78-48.41L75.78-48.41Q71.31-42.81 67.63-42.81L67.63-42.81L67.63-42.81Q63.25-42.81 63.25-49.13ZM127.50-2.56L127.50-2.56L127.50-3.88L127.50-3.88Q127.50-6.06 143.56-28.44L143.56-28.44L143.56-28.44Q159.63-50.81 159.63-52.03L159.63-52.03L159.63-52.03Q159.63-53.25 151.75-53.25L151.75-53.25L151.75-53.25Q143.88-53.25 140.75-51.94L140.75-51.94L140.75-51.94Q137.63-50.63 135.06-46.94L135.06-46.94L135.06-46.94Q132.50-43.25 130.06-43.25L130.06-43.25L130.06-43.25Q128.31-43.25 128.31-49L128.31-49L128.31-49Q128.31-59.88 132.25-59.88L132.25-59.88L133.75-59.88L137.06-59.75L137.06-59.75Q140.50-59.63 142.25-59.63L142.25-59.63L161.50-59.44L172-59.63L172-59.63Q176.56-59.63 176.56-56.13L176.56-56.13L176.56-56.13Q176.56-53.56 160.47-31.13L160.47-31.13L160.47-31.13Q144.38-8.69 144.38-8.06L144.38-8.06L144.38-8.06Q144.38-6.50 153.63-6.50L153.63-6.50L153.63-6.50Q162.88-6.50 166-8.22L166-8.22L166-8.22Q169.13-9.94 171.78-13.75L171.78-13.75L171.78-13.75Q174.44-17.56 176.69-17.56L176.69-17.56L176.69-17.56Q178.50-17.56 178.50-14.75L178.50-14.75L178.50-13.13L178.50-13.13Q178.50-4.75 177.25-2.31L177.25-2.31L177.25-2.31Q176 0.13 171.94 0.13L171.94 0.13L168.56 0.13L166.81 0.06L156.38-0.13L151.19-0.19L137.25-0.19L133.75-0.13L133.75-0.13Q130.63-0.13 130.31-0.19L130.31-0.19L130.31-0.19Q127.50-0.69 127.50-2.56ZM202.06-32.19L202.06-32.19L202.06-29.88L202.06-29.88Q202.06-19.25 206.19-12.25L206.19-12.25L206.19-12.25Q208.13-8.94 211.13-7L211.13-7L211.13-7Q214.13-5.06 217.19-5.06L217.19-5.06L218.44-5.06L218.44-5.06Q224.13-5.06 228.28-10.59L228.28-10.59L228.28-10.59Q232.44-16.13 232.44-26.31L232.44-26.31L232.44-30.75L232.44-30.75Q232.44-40.81 228.28-47.84L228.28-47.84L228.28-47.84Q224.13-54.88 217.75-54.88L217.75-54.88L215.81-54.88L215.81-54.88Q210.06-54.88 206.06-48.69L206.06-48.69L206.06-48.69Q202.06-42.50 202.06-32.19ZM247.50-31.94L247.50-31.94L247.50-28.81L247.50-28.81Q247.50-23.88 245.50-18L245.50-18L245.50-18Q241.31-5.75 228.81-0.88L228.81-0.88L228.81-0.88Q223.38 1.25 218.31 1.25L218.31 1.25L216.25 1.25L216.25 1.25Q204.31 1.25 196.31-6.75L196.31-6.75L196.31-6.75Q192.69-10.38 190.44-16.31L190.44-16.31L190.44-16.31Q188.19-22.25 188.19-28.94L188.19-28.94L188.19-30L188.19-30Q188.19-36.06 190.31-42.25L190.31-42.25L190.31-42.25Q194.44-54.31 206.50-59L206.50-59L206.50-59Q211.94-61.13 216.94-61.13L216.94-61.13L220.06-61.13L220.06-61.13Q225.63-61.13 231-58.63L231-58.63L231-58.63Q241.19-53.88 245.19-43.50L245.19-43.50L245.19-43.50Q247.50-37.38 247.50-31.94ZM289.88-2.44L289.88-2.44L289.88-2.44Q289.88 0 278.56 0L278.56 0L271.94 0L269.31-0.13L265.38-0.19L265.38-0.19Q258.75-0.19 258.75-2.56L258.75-2.56L258.75-2.56Q258.75-4.25 261.72-6.16L261.72-6.16L261.72-6.16Q264.69-8.06 265.72-11.09L265.72-11.09L265.72-11.09Q266.75-14.13 266.75-29L266.75-29L266.75-29Q266.75-43.88 265.78-47.06L265.78-47.06L265.78-47.06Q264.81-50.25 262.75-51.63L262.75-51.63L262.75-51.63Q259.06-54.06 259.06-55.19L259.06-55.19L259.06-55.19Q259.06-56.31 260.38-57.19L260.38-57.19L260.38-57.19Q264.25-59.81 273.50-59.81L273.50-59.81L274.69-59.81L274.69-59.81Q278.25-59.81 279.75-56.22L279.75-56.22L279.75-56.22Q281.25-52.63 282.19-52.63L282.19-52.63L282.19-52.63Q283.13-52.63 285.41-54.38L285.41-54.38L285.41-54.38Q287.69-56.13 290.91-57.88L290.91-57.88L290.91-57.88Q294.13-59.63 298.06-59.63L298.06-59.63L298.06-59.63Q302-59.63 304.09-57.59L304.09-57.59L304.09-57.59Q306.19-55.56 306.19-52.38L306.19-52.38L306.19-52.38Q306.13-49.13 304.50-47.50L304.50-47.50L304.50-47.50Q302.88-45.88 301-45.88L301-45.88L301-45.88Q299.13-45.88 296.06-47.41L296.06-47.41L296.06-47.41Q293-48.94 290.94-48.94L290.94-48.94L290.94-48.94Q288.88-48.94 286.44-47.22L286.44-47.22L286.44-47.22Q284-45.50 282.28-41.09L282.28-41.09L282.28-41.09Q280.56-36.69 280.56-26.03L280.56-26.03L280.56-26.03Q280.56-15.38 282.06-12.28L282.06-12.28L282.06-12.28Q283.56-9.19 286.72-6.63L286.72-6.63L286.72-6.63Q289.88-4.06 289.88-2.44Z"
                  fill="#444"></path>
        </g>
    </g>
    <style>text {
        font-size: 64px;
        font-family: Arial Black;
        dominant-baseline: central;
        text-anchor: middle;
        }
    </style>
</svg>